# xmcd
#
# Track frame offsets: 
#        150
#        13003
#        29210
#        50510
#        71915
#        90440
#        112963
#        131008
#        150715
#        171430
#        182315
#        200670
#        217140
#        234918
#        254090
#        272308
#
# Disc length: 3893 seconds
#
# Revision: 11
# Processed by: cddbd v1.5.2PL0 Copyright (c) Steve Scherf et al.
# Submitted via: ExactAudioCopy v1.0b1
#
DISCID=e80f3310
DTITLE=Nas - I Am...
DYEAR=1999
DGENRE=Rap
TTITLE0=Album Intro
TTITLE1=N.Y. State Of Mind Pt. II
TTITLE2=Hate Me Now
TTITLE3=Small World
TTITLE4=Favor For A Favor
TTITLE5=We Will Survive
TTITLE6=Ghetto Prisoners
TTITLE7=You Won't See Me Tonight
TTITLE8=I Want To Talk To You
TTITLE9=Dr. Knockboot
TTITLE10=Life Is What You Make It
TTITLE11=Big Things
TTITLE12=Nas Is Like
TTITLE13=K-I-SS-I-N-G
TTITLE14=Money Is My Bitch
TTITLE15=Undying Love
EXTD=YEAR: 1999
EXTT0=
EXTT1=
EXTT2=
EXTT3=
EXTT4=
EXTT5=
EXTT6=
EXTT7=
EXTT8=
EXTT9=
EXTT10=
EXTT11=
EXTT12=
EXTT13=
EXTT14=
EXTT15=
PLAYORDER=
